
<svg width="42px" height="49px" viewBox="0 0 42 49" version="1.1" xmlns="http://www.w3.org/2000/svg" xmlns:xlink="http://www.w3.org/1999/xlink">
    <!-- Generator: Sketch 47.1 (45422) - http://www.bohemiancoding.com/sketch -->
    <desc>Created with Sketch.</desc>
    <defs></defs>
    <g id="Page-1" stroke="none" stroke-width="1" fill="none" fill-rule="evenodd">
        <g id="Invitees" transform="translate(-1056.000000, -932.000000)" stroke="#73A9C5">
            <g id="Group-2" transform="translate(1056.000000, 932.000000)">
                <path d="M40.5,8.26016094 L34.1242344,1.5 L5,1.5 C3.06700338,1.5 1.5,3.06700338 1.5,5 L1.5,44 C1.5,45.9329966 3.06700338,47.5 5,47.5 L37,47.5 C38.9329966,47.5 40.5,45.9329966 40.5,44 L40.5,8.26016094 Z" id="Rectangle-10" stroke-width="3"></path>
                <path d="M8.5,20.5 L32.5,20.5" id="Line-3" stroke-width="3" stroke-linecap="round"></path>
                <path d="M8.5,29.5 L28.5,29.5" id="Line-4" stroke-width="3" stroke-linecap="round"></path>
                <path d="M8.5,39.5 L31.5,39.5" id="Line-5" stroke-width="3" stroke-linecap="round"></path>
                <path d="M8.5,11.5 L27.5,11.5" id="Line-2" stroke-width="3" stroke-linecap="round"></path>
                <path d="M33.5750059,3.71710874 L33.5750059,5.88903324 L33.5750059,5.88903324 C33.5750059,7.54588749 34.9181516,8.88903324 36.5750059,8.88903324 L38.2935172,8.88903324 L38.2935172,8.88903324 C38.8458019,8.88903324 39.2935172,8.44131799 39.2935172,7.88903324 C39.2935172,7.64365204 39.2032962,7.40683613 39.0400254,7.22365705 L35.3215141,3.05173255 L35.3215141,3.05173255 C34.954037,2.63944744 34.3219148,2.60312339 33.9096297,2.97060052 C33.6967514,3.16034275 33.5750059,3.43194339 33.5750059,3.71710874 Z" id="Path-4" fill="#73A9C5"></path>
            </g>
        </g>
    </g>
</svg>